<?xml version="1.0" encoding="UTF-8"?>
<!DOCTYPE svg PUBLIC "-//W3C//DTD SVG 1.1//EN" "http://www.w3.org/Graphics/SVG/1.1/DTD/svg11.dtd">
<!-- Creator: CorelDRAW 2018 (64-Bit) -->
<svg xmlns="http://www.w3.org/2000/svg" xml:space="preserve" width="1137px" height="1011px" version="1.1" style="shape-rendering:geometricPrecision; text-rendering:geometricPrecision; image-rendering:optimizeQuality; fill-rule:evenodd; clip-rule:evenodd"
viewBox="0 0 1137 1010.66"
 xmlns:xlink="http://www.w3.org/1999/xlink"
 aria-hidden="true"
 data-prefix="fas"
 data-icon="exclamation-triangle"
 role="img">
 <defs>
  <style type="text/css">
   <![CDATA[
    .fil0 {fill:red}
   ]]>
  </style>
 </defs>
 <g id="Layer_x0020_1">
  <metadata id="CorelCorpID_0Corel-Layer"/>
  <path class="fil0" d="M1124.2 868.56c36.44,63.16 -9.3,142.1 -82.07,142.1l-947.27 0c-72.91,0 -118.44,-79.06 -82.07,-142.1l473.64 -821.22c36.45,-63.18 127.75,-63.07 164.14,0l473.63 821.22zm-102.07 35.8l-453.63 -786.54 -453.64 786.54 907.27 0zm-453.63 -228.38c-46.89,0 -84.91,38.02 -84.91,84.92 0,46.89 38.02,84.91 84.91,84.91 46.9,0 84.91,-38.02 84.91,-84.91 0,-46.9 -38.01,-84.92 -84.91,-84.92zm-80.62 -305.21l13.7 251.04c0.64,11.75 10.35,20.95 22.12,20.95l89.61 0c11.76,0 21.47,-9.2 22.11,-20.95l13.7 -251.04c0.69,-12.69 -9.41,-23.36 -22.12,-23.36l-117 0c-12.71,0 -22.81,10.67 -22.12,23.36l0 0z"/>
 </g>
</svg>
